#N canvas 645 172 1012 498 12;
#X obj 395 320 noise~;
#X obj 232 226 bng 15 250 50 0 empty empty empty 17 7 0 10 -262144
-1 -1;
#X obj 232 171 metro 1000;
#X obj 318 294 bng 15 250 50 0 empty empty empty 17 7 0 10 -262144
-1 -1;
#X obj 232 147 tgl 15 0 empty empty empty 17 7 0 10 -262144 -1 -1 0
1;
#X obj 232 363 line~;
#X obj 185 447 dac~;
#X obj 185 398 *~;
#X msg 232 312 0 \, 1 10;
#X obj 471 234 bng 15 250 50 0 empty empty empty 17 7 0 10 -262144
-1 -1;
#X obj 557 302 bng 15 250 50 0 empty empty empty 17 7 0 10 -262144
-1 -1;
#X obj 471 371 line~;
#X obj 437 458 dac~;
#X obj 437 409 *~;
#X msg 471 320 0 \, 1 10;
#X obj 471 126 del 500;
#X obj 554 191 del 250;
#X obj 557 271 del 30;
#X msg 557 328 1 \, 0 20;
#X obj 318 263 del 100;
#X msg 318 319 1 \, 0 100;
#X obj 149 312 osc~ 300;
#X obj 671 328 noise~;
#X obj 833 310 bng 15 250 50 0 empty empty empty 17 7 0 10 -262144
-1 -1;
#X obj 747 379 line~;
#X obj 713 466 dac~;
#X obj 713 417 *~;
#X obj 747 251 bng 15 250 50 0 empty empty empty 17 7 0 10 -262144
-1 -1;
#X msg 747 328 0 \, 1 50;
#X obj 833 278 del 20;
#X msg 833 336 1 \, 0 100;
#X obj 808 205 del 100;
#X obj 333 102 / 2;
#X obj 333 130 / 2;
#X floatatom 333 64 5 0 0 0 - - -;
#X obj 149 265 osc~ 370;
#X obj 328 379 osc~ 1000;
#X obj 329 415 *~ 0.2;
#X connect 0 0 13 0;
#X connect 1 0 8 0;
#X connect 1 0 19 0;
#X connect 2 0 1 0;
#X connect 2 0 15 0;
#X connect 2 0 16 0;
#X connect 2 0 9 0;
#X connect 2 0 27 0;
#X connect 2 0 31 0;
#X connect 3 0 20 0;
#X connect 4 0 2 0;
#X connect 5 0 7 1;
#X connect 7 0 6 0;
#X connect 7 0 6 1;
#X connect 8 0 5 0;
#X connect 9 0 14 0;
#X connect 9 0 17 0;
#X connect 10 0 18 0;
#X connect 11 0 13 1;
#X connect 13 0 12 0;
#X connect 13 0 12 1;
#X connect 14 0 11 0;
#X connect 15 0 9 0;
#X connect 15 0 16 0;
#X connect 16 0 9 0;
#X connect 17 0 10 0;
#X connect 18 0 11 0;
#X connect 19 0 3 0;
#X connect 20 0 5 0;
#X connect 21 0 7 0;
#X connect 22 0 26 0;
#X connect 23 0 30 0;
#X connect 24 0 26 1;
#X connect 26 0 25 0;
#X connect 26 0 25 1;
#X connect 27 0 28 0;
#X connect 27 0 29 0;
#X connect 28 0 24 0;
#X connect 29 0 23 0;
#X connect 30 0 24 0;
#X connect 31 0 27 0;
#X connect 32 0 33 0;
#X connect 33 0 16 1;
#X connect 34 0 32 0;
#X connect 34 0 2 1;
#X connect 35 0 7 0;
#X connect 36 0 37 0;
#X connect 37 0 13 0;
