#N canvas 103 193 1012 498 12;
#X obj 418 232 noise~;
#X obj 255 138 bng 15 250 50 0 empty empty empty 17 7 0 10 -262144
-1 -1;
#X obj 255 83 metro 1000;
#X obj 341 206 bng 15 250 50 0 empty empty empty 17 7 0 10 -262144
-1 -1;
#X obj 255 59 tgl 15 0 empty empty empty 17 7 0 10 -262144 -1 -1 1
1;
#X obj 255 275 line~;
#X obj 208 359 dac~;
#X obj 208 310 *~;
#X msg 255 224 0 \, 1 10;
#X obj 494 146 bng 15 250 50 0 empty empty empty 17 7 0 10 -262144
-1 -1;
#X obj 580 214 bng 15 250 50 0 empty empty empty 17 7 0 10 -262144
-1 -1;
#X obj 494 283 line~;
#X obj 460 370 dac~;
#X obj 460 321 *~;
#X msg 494 232 0 \, 1 10;
#X obj 494 38 del 500;
#X obj 577 103 del 250;
#X obj 580 183 del 30;
#X msg 580 240 1 \, 0 20;
#X obj 341 175 del 100;
#X msg 341 231 1 \, 0 100;
#X obj 172 224 osc~ 300;
#X obj 694 240 noise~;
#X obj 856 222 bng 15 250 50 0 empty empty empty 17 7 0 10 -262144
-1 -1;
#X obj 770 291 line~;
#X obj 736 378 dac~;
#X obj 736 329 *~;
#X obj 770 163 bng 15 250 50 0 empty empty empty 17 7 0 10 -262144
-1 -1;
#X msg 770 240 0 \, 1 50;
#X obj 856 190 del 20;
#X msg 856 248 1 \, 0 100;
#X obj 831 117 del 100;
#X connect 0 0 13 0;
#X connect 1 0 8 0;
#X connect 1 0 19 0;
#X connect 2 0 1 0;
#X connect 2 0 15 0;
#X connect 2 0 16 0;
#X connect 2 0 9 0;
#X connect 2 0 27 0;
#X connect 2 0 31 0;
#X connect 3 0 20 0;
#X connect 4 0 2 0;
#X connect 5 0 7 1;
#X connect 7 0 6 0;
#X connect 7 0 6 1;
#X connect 8 0 5 0;
#X connect 9 0 14 0;
#X connect 9 0 17 0;
#X connect 10 0 18 0;
#X connect 11 0 13 1;
#X connect 13 0 12 0;
#X connect 13 0 12 1;
#X connect 14 0 11 0;
#X connect 15 0 9 0;
#X connect 15 0 16 0;
#X connect 16 0 9 0;
#X connect 17 0 10 0;
#X connect 18 0 11 0;
#X connect 19 0 3 0;
#X connect 20 0 5 0;
#X connect 21 0 7 0;
#X connect 22 0 26 0;
#X connect 23 0 30 0;
#X connect 24 0 26 1;
#X connect 26 0 25 0;
#X connect 26 0 25 1;
#X connect 27 0 28 0;
#X connect 27 0 29 0;
#X connect 28 0 24 0;
#X connect 29 0 23 0;
#X connect 30 0 24 0;
#X connect 31 0 27 0;
